<?xml version="1.0" encoding="utf-8"?>
<!-- Generator: Adobe Illustrator 16.0.0, SVG Export Plug-In . SVG Version: 6.00 Build 0)  -->
<!DOCTYPE svg PUBLIC "-//W3C//DTD SVG 1.1//EN" "http://www.w3.org/Graphics/SVG/1.1/DTD/svg11.dtd">
<svg version="1.1" id="Layer_1" xmlns="http://www.w3.org/2000/svg" xmlns:xlink="http://www.w3.org/1999/xlink" x="0px" y="0px"
	 width="68px" height="68px" viewBox="0 0 68 68" enable-background="new 0 0 68 68" xml:space="preserve">
<path fill="#FFFFFF" d="M39.461,30.555c-1.658-0.224-3.093-0.797-4.3-1.754c-1.531-1.207-2.39-2.769-2.551-4.681
	c-0.19-2.198,0.415-4.619,1.818-7.326c0.764-1.371,1.145-2.327,1.114-2.835c-0.032-0.605-0.286-1.05-0.829-1.338
	c-0.829-0.445-1.688-0.414-2.579,0.128c-0.414,0.223-1.275,1.083-2.614,2.517c-1.305,1.432-2.769,3.12-4.394,5.128l-0.319,0.382
	c-0.733,0.923-1.306,1.655-1.72,2.133c-0.415,0.478-0.987,1.18-1.752,2.039c-0.732,0.86-1.37,1.528-1.912,2.006
	c-0.541,0.478-1.177,1.051-1.974,1.719c-1.561,1.308-2.899,1.977-4.65,2.771c-1.752,0.798-3.728,1.211-5.798,1.339v-5.097
	c0.86-0.094,1.72-0.255,2.517-0.509c1.655-0.511,2.803-0.989,4.237-2.135c0.732-0.573,1.369-1.084,1.846-1.498
	c0.478-0.413,1.084-1.051,1.816-1.847c0.733-0.829,1.274-1.465,1.658-1.943l1.782-2.167l0.287-0.414
	c4.141-5.066,6.975-8.028,8.503-8.887c2.421-1.369,5.192-1.401,7.52-0.128c2.069,1.116,3.312,3.09,3.438,5.479
	c0.032,0.669-0.03,1.338-0.222,2.071c-0.192,0.732-0.384,1.306-0.604,1.751c-0.191,0.445-0.479,1.02-0.862,1.72
	c-0.923,1.753-1.305,3.249-1.209,4.493c0.095,1.273,1.623,1.974,3.185,1.974h2.294L39.461,30.555z M53.668,28.771
	c0.826,1.179,1.241,2.612,1.241,4.333c0,1.623-0.51,3.374-1.561,5.318c-0.288,0.541-0.479,0.924-0.543,1.145
	c-0.094,0.353-0.127,0.928-0.031,1.757c0.158,1.813,0,3.5-0.446,5.03c-0.158,0.604-0.414,1.21-0.764,1.785
	c-0.318,0.573-0.605,1.018-0.829,1.304c-0.223,0.288-0.572,0.67-0.986,1.149c-0.542,0.57-0.926,1.084-1.21,1.494
	c-0.13,0.159-0.32,0.574-0.542,1.21l-0.573,1.371c-0.161,0.319-0.413,0.767-0.797,1.309c-0.733,1.111-1.911,2.039-3.599,2.831
	c-2.008,0.956-4.492,1.436-7.39,1.436h-0.32c-4.682,0-9.174-1.243-13.474-3.726c-1.689-0.989-6.308-1.465-13.857-1.403H7.001v-5.034
	h0.956c2.77-0.094,6.146,0,8.981,0.16c2.835,0.159,5.734,0.829,7.486,1.847c3.473,2.01,7.102,3.027,10.958,3.027
	c2.198,0.065,4.014-0.254,5.446-0.923c0.765-0.353,1.274-0.702,1.562-1.051c0.286-0.352,0.541-0.861,0.829-1.596
	c0.286-0.923,0.668-1.686,1.083-2.322c0.348-0.542,0.923-1.21,1.655-2.039c0.224-0.254,0.829-0.956,1.053-1.178
	c0.222-0.255,0.476-0.702,0.603-1.083c0.257-0.829,0.351-1.879,0.257-3.123c-0.127-1.338-0.065-2.486,0.158-3.438
	c0.256-1.054,0.541-1.851,0.859-2.392c0.604-1.146,0.925-2.102,0.925-2.865v-0.096L53.668,28.771z M34.141,53.361L20.028,35.109
	l4.015-3.152l9.586,12.55l23.126-34.498l4.332,2.676L34.141,53.361z"/>
</svg>
