<?xml version="1.0" encoding="utf-8"?>
<!-- Generator: Adobe Illustrator 16.0.0, SVG Export Plug-In . SVG Version: 6.00 Build 0)  -->
<!DOCTYPE svg PUBLIC "-//W3C//DTD SVG 1.1//EN" "http://www.w3.org/Graphics/SVG/1.1/DTD/svg11.dtd">
<svg version="1.1" id="Layer_1" xmlns="http://www.w3.org/2000/svg" xmlns:xlink="http://www.w3.org/1999/xlink" x="0px" y="0px"
	 width="180px" height="146.064px" viewBox="0 0 180 146.064" enable-background="new 0 0 180 146.064" xml:space="preserve">
<path fill="#FFFFFF" stroke="#F15A29" stroke-width="2" stroke-miterlimit="10" d="M166.549,126.387c0,6.627-5.373,12-12,12H25
	c-6.627,0-12-5.373-12-12V20.064c0-6.627,5.373-12,12-12h129.549c6.627,0,12,5.373,12,12V126.387z"/>
<path fill="#F7941E" d="M138.136,93.479c-3.556,11.512-7.437,17.458-18.497,17.458c-16.293,0-23.083-14.614-23.083-38.15
	c0-23.542,6.79-38.221,23.083-38.221c11.061,0,15.589,6.917,18.82,18.429c0.646,2.261,2.202,3.169,4.72,2.587l8.924-2.458
	c-3.943-19.658-15.844-30.652-32.464-30.652c-16.228,0-27.22,9.762-33.11,25.994L68.036,99.492c-0.841,2.908-3.62,3.296-4.787,0
	L36.54,27.644c-1.035-2.847-2.52-3.491-4.784-3.491H20.182l38.027,95.646h14.029l11.706-30.334
	c-0.904-8.728-1.232-16.811,1.035-26.191c-0.84,8.86-1.164,15.653,0.647,26.321c3.558,21.084,15.779,33.437,34.013,33.437
	c16.168,0,27.938-10.671,32.141-29.232l-9.115-2.973C140.981,90.309,138.717,90.827,138.136,93.479z"/>
<linearGradient id="SVGID_1_" gradientUnits="userSpaceOnUse" x1="20.3853" y1="72.9326" x2="152.0312" y2="72.9326">
	<stop  offset="0" style="stop-color:#FFF3EA;stop-opacity:0"/>
	<stop  offset="0.9965" style="stop-color:#F04B23"/>
</linearGradient>
<path fill="url(#SVGID_1_)" d="M138.092,93.618c-3.548,11.488-7.422,17.421-18.455,17.421c-16.26,0-23.037-14.584-23.037-38.07
	c0-23.493,6.777-38.141,23.037-38.141c11.033,0,15.553,6.906,18.779,18.394c0.643,2.255,2.192,3.161,4.71,2.579l8.905-2.452
	c-3.934-19.618-15.812-30.591-32.395-30.591c-16.195,0-27.165,9.748-33.04,25.942L68.141,99.619c-0.84,2.902-3.617,3.287-4.774,0
	L36.712,27.92c-1.035-2.837-2.52-3.484-4.775-3.484H20.385l37.947,95.447h14.004l11.678-30.267
	c-0.899-8.712-1.229-16.78,1.032-26.136c-0.838,8.841-1.161,15.616,0.647,26.262c3.549,21.041,15.748,33.366,33.942,33.366
	c16.133,0,27.88-10.646,32.071-29.17l-9.097-2.967C140.932,90.457,138.674,90.971,138.092,93.618z"/>
<linearGradient id="SVGID_2_" gradientUnits="userSpaceOnUse" x1="71.2388" y1="91.5361" x2="84.9785" y2="91.5361">
	<stop  offset="0" style="stop-color:#FFF3EA;stop-opacity:0"/>
	<stop  offset="0.9965" style="stop-color:#F04B23"/>
</linearGradient>
<path fill="url(#SVGID_2_)" d="M84.979,63.273c-1.197,8.071-2.723,11.722-1.182,26.213l-11.559,30.313
	C72.238,119.799,65.938,85.146,84.979,63.273z"/>
<path fill="#F15A29" d="M119.604,39.479c2.403-0.102,4.877,0.172,7.413,1.879c2.75,1.633,3.586,3.965,2.507,6.642l-2.045,4.972
	c-0.939,2.406-2.888,3.343-4.448,3.17c-1.815-0.038-2.718-1.007-3.969-1.109c-3.896-0.031-7.615,7.239-7.503,17.113
	c0.009,9.913,3.801,18.677,7.627,18.677c1.288,0.034,2.119-1.115,3.998-1.22c1.497-0.037,3.586,0.832,4.489,3.195l2.092,4.871
	c1.115,2.815,0.209,5.147-2.431,6.786c-2.575,1.667-4.976,1.947-7.406,1.95c-10.299-0.274-19.141-14.6-19.187-33.486
	C100.625,54.17,109.312,39.735,119.604,39.479z"/>
</svg>
